<?xml version="1.0" encoding="utf-8"?>
<?xml-stylesheet type="text/xsl" href="rss1.xsl"?>
<rss version="2.0" xmlns:atom="http://www.w3.org/2005/Atom" xmlns:content="http://purl.org/rss/1.0/modules/content/" xmlns:dc="http://purl.org/dc/elements/1.1/" xmlns:media="http://search.yahoo.com/mrss/">
<channel>
 <title>Getty</title>
 <link>http://www.gettyimg.com/</link>
 <atom:link href="http://www.gettyimg.com/" rel="self" type="application/rss+xml" />

 
                <item>
                <title><![CDATA[【Music Videos】Derek Lopez - Batida De Coco (Clean)]]></title>
                <link><![CDATA[https://sharemania.us/threads/derek-lopez-batida-de-coco-clean.240915/]]></link>
                <description><![CDATA[<article>
<blockquote class="messageText SelectQuoteContainer ugc baseHtml">
<img src="https://i.ibb.co/4ZWQZGX/Derek-Lopez-Batida-De-Coco-mp4-thumbs-2024-03-28-13-41-11.jpg" class="bbCodeImage LbImage" alt="[​IMG]" data-url="https://i.ibb.co/4ZWQZGX/Derek-Lopez-Batida-De-Coco-mp4-thumbs-2024-03-28-13-41-11.jpg" style=""> <br>
<br>
<div class="ToggleTriggerAnchor bbCodeSpoilerContainer">
<button type="button" class="button bbCodeSpoilerButton ToggleTrigger Tooltip JsOnly" data-target="> .SpoilerTarget"><span>Spoiler: <span class="SpoilerTitle">MediaInfo</span></span></button>
<div class="SpoilerTarget bbCodeSpoilerText">Derek Lopez-Batida De Coco.mp4<br>
Format : MPEG-4<br>
Format profile : Base Media / Version 2<br>
Codec ID : mp42 (mp42/mp41)<br>
File size : 267 MiB<br>
Duration : 3 min 53 s<br>
Overall bit rate mode : Variable<br>
Overall bit rate : 9 591 kb/s<br>
Frame rate : 29.970 FPS<br>
Encoded date : 2020-12-10 00:37:21 UTC<br>
Tagged date : 2020-12-10 00:37:39 UTC<br>
TIM : 00:00:00:00<br>
TSC : 30000<br>
TSZ : 1001<br>
<br>
Video<br>
ID : 1<br>
Format : AVC<br>
Format/Info : Advanced Video Codec<br>
Format profile : High@L3.1<br>
Format settings : CABAC / 4 Ref Frames<br>
Format settings, CABAC : Yes<br>
Format settings, Reference : 4 frames<br>
Format settings, GOP : M=3, N=29<br>
Codec ID : avc1<br>
Codec ID/Info : Advanced Video Coding<br>
Duration : 3 min 53 s<br>
Bit rate mode : Variable<br>
Bit rate : 9 268 kb/s<br>
Maximum bit rate : 12.0 Mb/s<br>
Width : 720 pixels<br>
Height : 480 pixels<br>
Display aspect ratio : 4:3<br>
Original display aspect rat : 4:3<br>
Frame rate mode : Constant<br>
Frame rate : 29.970 (30000/1001) FPS<br>
Standard : NTSC<br>
Color space : YUV<br>
Chroma subsampling : 4:2:0<br>
Bit depth : 8 bits<br>
Scan type : Interlaced<br>
Scan type, store method : Separated fields<br>
Scan order : Bottom Field First<br>
Bits/(Pixel*Frame) : 0.895<br>
Stream size : 258 MiB (97%)<br>
Language : English<br>
Encoded date : 2020-12-10 00:37:21 UTC<br>
Tagged date : 2020-12-10 00:37:21 UTC<br>
Color range : Limited<br>
Color primaries : BT.601 NTSC<br>
Transfer characteristics : BT.601<br>
Matrix coefficients : BT.601<br>
Codec configuration box : avcC<br>
<br>
Audio<br>
ID : 2<br>
Format : AAC LC<br>
Format/Info : Advanced Audio Codec Low Complexity<br>
Codec ID : mp4a-40-2<br>
Duration : 3 min 53 s<br>
Source duration : 3 min 53 s<br>
Bit rate mode : Variable<br>
Bit rate : 317 kb/s<br>
Maximum bit rate : 414 kb/s<br>
Channel(s) : 2 channels<br>
Channel layout : L R<br>
Sampling rate : 48.0 kHz<br>
Frame rate : 46.875 FPS (1024 SPF)<br>
Compression mode : Lossy<br>
Stream size : 8.84 MiB (3%)<br>
Source stream size : 8.84 MiB (3%)<br>
Language : English<br>
Encoded date : 2020-12-10 00:37:21 UTC<br>
Tagged date : 2020-12-10 00:37:21 UTC</div>
</div><br>
<div class="bbCodeBlock bbCodeVfcHH HiddenContent">
<div class="attribution type">Hidden Content:</div>
<blockquote>You must reply before you can see the hidden data contained here.</blockquote>
</div>
<div class="messageTextEndMarker">&nbsp;</div>
</blockquote>
</article>]]></description>
                <author><![CDATA[DJ-RoGeRs-BS]]></author>
                </item>

                
                <item>
                <title><![CDATA[【Music Videos】Derek Lopez - Batida De Coco (Clean)]]></title>
                <link><![CDATA[https://sharemania.us/threads/derek-lopez-batida-de-coco-clean.240916/]]></link>
                <description><![CDATA[<article>
<blockquote class="messageText SelectQuoteContainer ugc baseHtml">
*alguien que enseñe ó explique cómo es que se elimina un post! (se me repitio este post tres veces) <br>
**someone to teach or explain how a post is deleted! (this post was repeated three times)
<div class="messageTextEndMarker">&nbsp;</div>
</blockquote>
</article>]]></description>
                <author><![CDATA[DJ-RoGeRs-BS]]></author>
                </item>

                
                <item>
                <title><![CDATA[【Music Videos】Derek Lopez - Batida De Coco (Clean)]]></title>
                <link><![CDATA[https://sharemania.us/threads/derek-lopez-batida-de-coco-clean.240914/]]></link>
                <description><![CDATA[<article>
<blockquote class="messageText SelectQuoteContainer ugc baseHtml">
<img src="https://i.ibb.co/4ZWQZGX/Derek-Lopez-Batida-De-Coco-mp4-thumbs-2024-03-28-13-41-11.jpg" class="bbCodeImage LbImage" alt="[​IMG]" data-url="https://i.ibb.co/4ZWQZGX/Derek-Lopez-Batida-De-Coco-mp4-thumbs-2024-03-28-13-41-11.jpg" style=""> <br>
<br>
<div class="ToggleTriggerAnchor bbCodeSpoilerContainer">
<button type="button" class="button bbCodeSpoilerButton ToggleTrigger Tooltip JsOnly" data-target="> .SpoilerTarget"><span>Spoiler: <span class="SpoilerTitle">MediaInfo</span></span></button>
<div class="SpoilerTarget bbCodeSpoilerText">Derek Lopez-Batida De Coco.mp4<br>
Format : MPEG-4<br>
Format profile : Base Media / Version 2<br>
Codec ID : mp42 (mp42/mp41)<br>
File size : 267 MiB<br>
Duration : 3 min 53 s<br>
Overall bit rate mode : Variable<br>
Overall bit rate : 9 591 kb/s<br>
Frame rate : 29.970 FPS<br>
Encoded date : 2020-12-10 00:37:21 UTC<br>
Tagged date : 2020-12-10 00:37:39 UTC<br>
TIM : 00:00:00:00<br>
TSC : 30000<br>
TSZ : 1001<br>
<br>
Video<br>
ID : 1<br>
Format : AVC<br>
Format/Info : Advanced Video Codec<br>
Format profile : High@L3.1<br>
Format settings : CABAC / 4 Ref Frames<br>
Format settings, CABAC : Yes<br>
Format settings, Reference : 4 frames<br>
Format settings, GOP : M=3, N=29<br>
Codec ID : avc1<br>
Codec ID/Info : Advanced Video Coding<br>
Duration : 3 min 53 s<br>
Bit rate mode : Variable<br>
Bit rate : 9 268 kb/s<br>
Maximum bit rate : 12.0 Mb/s<br>
Width : 720 pixels<br>
Height : 480 pixels<br>
Display aspect ratio : 4:3<br>
Original display aspect rat : 4:3<br>
Frame rate mode : Constant<br>
Frame rate : 29.970 (30000/1001) FPS<br>
Standard : NTSC<br>
Color space : YUV<br>
Chroma subsampling : 4:2:0<br>
Bit depth : 8 bits<br>
Scan type : Interlaced<br>
Scan type, store method : Separated fields<br>
Scan order : Bottom Field First<br>
Bits/(Pixel*Frame) : 0.895<br>
Stream size : 258 MiB (97%)<br>
Language : English<br>
Encoded date : 2020-12-10 00:37:21 UTC<br>
Tagged date : 2020-12-10 00:37:21 UTC<br>
Color range : Limited<br>
Color primaries : BT.601 NTSC<br>
Transfer characteristics : BT.601<br>
Matrix coefficients : BT.601<br>
Codec configuration box : avcC<br>
<br>
Audio<br>
ID : 2<br>
Format : AAC LC<br>
Format/Info : Advanced Audio Codec Low Complexity<br>
Codec ID : mp4a-40-2<br>
Duration : 3 min 53 s<br>
Source duration : 3 min 53 s<br>
Bit rate mode : Variable<br>
Bit rate : 317 kb/s<br>
Maximum bit rate : 414 kb/s<br>
Channel(s) : 2 channels<br>
Channel layout : L R<br>
Sampling rate : 48.0 kHz<br>
Frame rate : 46.875 FPS (1024 SPF)<br>
Compression mode : Lossy<br>
Stream size : 8.84 MiB (3%)<br>
Source stream size : 8.84 MiB (3%)<br>
Language : English<br>
Encoded date : 2020-12-10 00:37:21 UTC<br>
Tagged date : 2020-12-10 00:37:21 UTC</div>
</div><br>
<div class="bbCodeBlock bbCodeVfcHH HiddenContent">
<div class="attribution type">Hidden Content:</div>
<blockquote>You must reply before you can see the hidden data contained here.</blockquote>
</div>
<div class="messageTextEndMarker">&nbsp;</div>
</blockquote>
</article>]]></description>
                <author><![CDATA[DJ-RoGeRs-BS]]></author>
                </item>

                </channel></rss>